<svg width="1192" height="295" xmlns="http://www.w3.org/2000/svg" xmlns:xlink="http://www.w3.org/1999/xlink" xml:space="preserve" overflow="hidden"><g transform="matrix(1 0 0 1 0 -142)"><g><g><g><path d="M308.527 247.89 230.527 383.236 172.23 349.686 250.23 214.34ZM327.995 349.579 405.995 214.233 464.292 247.783 386.292 383.129Z" fill="#0078FF" fill-rule="nonzero" fill-opacity="1" transform="matrix(1.00173 0 0 1 0 0.535751)"/><path d="M468.673 231.083C468.673 249.621 453.575 264.719 435.037 264.719 416.498 264.719 401.401 249.621 401.401 231.083 401.401 212.545 416.498 197.447 435.037 197.447 453.693 197.447 468.673 212.545 468.673 231.083M201.518 400.086C189.451 400.106 178.298 393.665 172.284 383.204L94.4547 247.826C85.1933 231.777 90.6956 211.259 106.744 201.998 106.769 201.984 106.793 201.97 106.817 201.956 122.983 192.681 143.541 198.152 152.805 214.318L230.645 349.568C239.876 365.688 234.352 386.237 218.282 395.556 212.94 398.761 207.234 400.076 201.528 400.076Z" fill="#00E89D" fill-rule="nonzero" fill-opacity="1" transform="matrix(1.00173 0 0 1 0 0.535751)"/><path d="M357.197 400.086C345.444 400.086 334.257 394.028 327.963 383.204L250.123 247.826C240.892 231.706 246.416 211.157 262.486 201.838 278.606 192.607 299.155 198.131 308.474 214.201L386.313 349.579C395.545 365.699 390.021 386.248 373.951 395.567 368.715 398.665 362.903 400.086 357.197 400.086Z" fill="#00E89D" fill-rule="nonzero" fill-opacity="1" transform="matrix(1.00173 0 0 1 0 0.535751)"/><path d="M115.502 817.324 96.2116 817.324 80.4576 868.444 64.3822 817.324 50.7984 817.324 35.0445 868.444 18.969 817.324 0 817.324 27.5372 895.29 42.3749 895.29 57.7591 846.292 73.3201 895.29 87.9809 895.29ZM198.821 895.29 195.606 885.645 167.892 885.645 164.677 895.29 145.386 895.29 173.277 817.324 189.899 817.324 218.144 895.29ZM182.006 839.669 172.361 871.82 191.33 871.82ZM301.64 817.163 285.018 847.916 268.396 817.163 247.305 817.163 275.919 867.399 275.919 895.113 294.181 895.113 294.181 867.592 322.634 817.356ZM445.226 817.163 445.226 895.129 427.543 895.129 427.543 847.176 410.728 895.451 397.321 895.451 379.959 847.176 379.959 895.451 362.276 895.451 362.276 817.485 383.174 817.485 404.072 871.82 424.649 817.485ZM488.661 856.307C488.661 834.846 504.046 815.363 529.975 815.363 555.905 815.363 571.096 835.023 571.096 856.307 571.096 877.591 555.712 897.251 529.975 897.251 504.046 897.412 488.661 877.768 488.661 856.307M552.851 856.307C552.851 843.447 544.09 831.631 529.959 831.631 515.491 831.631 507.068 843.607 507.068 856.307 507.068 869.007 515.652 880.983 529.959 880.983 544.106 881.144 552.851 869.183 552.851 856.307" fill="#949A9F" fill-rule="nonzero" fill-opacity="1" transform="matrix(1.00173 0 0 1 534.784 -557.049)"/></g></g></g></g></svg>